<?xml version="1.0" standalone="no"?>
<!DOCTYPE svg PUBLIC "-//W3C//DTD SVG 20010904//EN"
 "http://www.w3.org/TR/2001/REC-SVG-20010904/DTD/svg10.dtd">
<svg version="1.0" xmlns="http://www.w3.org/2000/svg"
 width="512.000000pt" height="512.000000pt" viewBox="0 0 512.000000 512.000000"
 preserveAspectRatio="xMidYMid meet">

<g transform="translate(0.000000,512.000000) scale(0.100000,-0.100000)"
fill="#000000" stroke="none">
<path d="M1320 5109 c-288 -33 -550 -129 -739 -269 -185 -137 -303 -308 -344
-499 -30 -137 -29 -423 1 -604 12 -70 22 -129 22 -132 0 -3 -17 -13 -38 -24
-46 -24 -113 -95 -141 -150 -107 -208 -35 -477 152 -571 55 -28 70 -31 136
-28 l73 3 25 -85 c94 -331 355 -621 676 -750 l57 -24 0 -91 0 -91 -87 -72
c-86 -70 -89 -72 -144 -72 -87 0 -222 -27 -320 -64 -261 -98 -481 -314 -579
-569 -63 -161 -65 -178 -65 -574 l0 -363 38 -37 37 -38 1495 0 1495 0 37 38
38 37 0 363 c0 396 -2 413 -65 574 -91 238 -302 456 -535 552 -109 46 -215 71
-327 78 l-97 6 -85 70 -86 71 0 91 0 91 78 32 c168 69 353 215 473 375 72 96
150 253 181 364 l23 83 56 0 c68 0 162 43 208 95 150 171 148 432 -5 595 -24
26 -62 55 -84 65 -22 10 -40 21 -40 25 0 4 11 61 24 126 58 283 67 407 41 576
-28 188 -78 292 -194 409 -115 114 -260 182 -454 213 -60 9 -98 21 -115 35
-50 39 -159 90 -238 110 -157 39 -396 51 -584 30z m400 -149 c146 -18 232 -47
321 -106 57 -38 93 -55 127 -59 166 -22 269 -55 362 -116 166 -111 234 -268
234 -539 -1 -126 -5 -168 -37 -328 -21 -101 -37 -193 -37 -206 0 -21 -25 -54
-34 -45 -8 8 -80 188 -107 267 -16 46 -37 126 -49 177 -27 128 -53 193 -110
279 -60 89 -164 197 -207 215 -72 30 -150 -15 -179 -102 -25 -78 -48 -118 -91
-159 -50 -48 -126 -85 -210 -103 -83 -18 -291 -20 -410 -4 -110 15 -208 7
-309 -25 -212 -67 -422 -264 -510 -478 -33 -82 -53 -63 -77 77 -56 310 -44
579 32 742 99 210 336 376 665 463 203 54 438 73 626 50z m580 -823 c22 -43
40 -87 40 -97 0 -10 13 -70 29 -132 33 -127 95 -294 165 -443 l48 -100 -5
-225 c-4 -202 -7 -235 -30 -322 -92 -349 -364 -623 -714 -720 -67 -19 -104
-22 -258 -22 -154 0 -191 3 -258 22 -351 98 -621 370 -714 721 -24 88 -26 118
-31 346 -5 286 0 319 61 445 34 70 58 102 136 181 163 163 300 214 510 190
145 -16 352 -15 437 3 209 43 358 155 411 308 l18 50 58 -63 c33 -35 74 -96
97 -142z m-1905 -721 c25 -33 25 -34 25 -228 0 -217 3 -208 -68 -208 -116 0
-203 180 -159 331 19 63 67 126 111 144 37 16 55 8 91 -39z m2461 -1 c55 -56
79 -131 71 -221 -9 -113 -86 -214 -164 -214 l-33 0 0 203 c0 200 0 203 25 240
14 20 33 37 42 37 9 0 36 -20 59 -45z m-1281 -1494 c77 0 159 4 183 8 l42 8 0
-68 0 -67 -112 -70 -113 -69 -110 68 -110 68 -3 69 -3 69 43 -8 c24 -4 106 -8
183 -8z m-118 -365 c9 -8 0 -31 -44 -101 -30 -49 -57 -91 -58 -93 -3 -3 -36
32 -148 154 l-46 50 60 51 61 51 81 -50 c45 -28 87 -55 94 -62z m495 42 l37
-33 -92 -102 c-51 -56 -94 -102 -97 -102 -6 -1 -114 174 -114 185 1 5 41 34
90 65 100 63 89 64 176 -13z m-791 -253 c147 -162 162 -175 202 -175 40 0 72
34 143 151 37 60 70 106 74 102 4 -5 35 -54 69 -110 67 -110 99 -143 138 -143
40 0 55 13 202 175 l142 155 52 0 c97 0 233 -36 341 -89 179 -88 300 -209 386
-386 80 -165 83 -184 87 -552 l4 -323 -1425 0 -1426 0 0 293 c0 354 11 422 89
581 88 179 208 299 388 387 109 54 235 87 335 88 l57 1 142 -155z"/>
<path d="M1525 961 c-109 -28 -185 -126 -185 -237 0 -81 67 -177 147 -211 42
-17 134 -17 176 0 111 47 170 173 135 288 -14 49 -69 114 -117 138 -44 23
-115 33 -156 22z m113 -177 c48 -54 10 -134 -63 -134 -69 0 -108 73 -69 128
33 48 92 50 132 6z"/>
<path d="M3445 5105 c-55 -19 -129 -101 -144 -159 -8 -32 -11 -340 -11 -1083
l-1 -1038 -235 -210 c-130 -115 -247 -223 -260 -238 -31 -37 -31 -78 2 -116
32 -39 41 -39 283 -6 101 14 189 25 197 25 11 0 14 -25 14 -126 0 -159 11
-201 67 -264 76 -85 35 -81 870 -78 l730 3 49 30 c30 19 60 49 79 79 l30 49 0
1492 0 1492 -30 49 c-19 30 -49 60 -79 79 l-49 30 -736 2 c-613 2 -743 0 -776
-12z m1496 -164 l29 -29 0 -1447 0 -1447 -29 -29 -29 -29 -707 0 -707 0 -29
29 -29 29 0 175 c0 174 0 176 -26 206 -34 41 -65 44 -224 22 -74 -10 -136 -17
-138 -16 -2 2 79 77 180 168 101 91 190 177 196 192 9 20 12 286 12 1086 l0
1061 29 29 29 29 707 0 707 0 29 -29z"/>
<path d="M4005 4645 c-14 -13 -25 -36 -25 -50 0 -14 11 -37 25 -50 l24 -25
339 0 c377 0 375 0 388 67 5 26 1 37 -19 57 l-26 26 -341 0 -341 0 -24 -25z"/>
<path d="M3732 4297 c-29 -31 -28 -72 3 -102 l24 -25 474 0 c528 0 510 -2 523
67 5 26 1 37 -19 57 l-26 26 -479 0 -479 0 -21 -23z"/>
<path d="M3732 3947 c-29 -31 -28 -72 3 -102 l24 -25 474 0 c528 0 510 -2 523
67 5 26 1 37 -19 57 l-26 26 -479 0 -479 0 -21 -23z"/>
<path d="M3735 3591 c-49 -22 -98 -76 -116 -128 -11 -30 -14 -144 -14 -548 0
-504 0 -510 22 -550 12 -22 36 -54 55 -72 64 -61 77 -63 532 -63 467 0 485 2
548 67 77 81 73 48 73 618 0 557 0 556 -58 622 -64 73 -59 73 -557 73 -409 0
-448 -2 -485 -19z m925 -151 c19 -19 20 -33 20 -519 l0 -500 -26 -20 c-26 -20
-37 -21 -434 -21 -397 0 -408 1 -434 21 l-26 20 0 501 c0 453 2 503 17 520 15
17 42 18 440 18 410 0 424 -1 443 -20z"/>
<path d="M4173 3340 c-30 -27 -35 -76 -31 -304 l3 -198 28 -24 c15 -13 37 -24
47 -24 10 0 32 11 47 24 l28 24 3 198 c2 109 1 218 -3 241 -7 50 -37 83 -75
83 -14 0 -36 -9 -47 -20z"/>
<path d="M4174 2706 c-24 -20 -28 -31 -28 -74 0 -65 22 -92 74 -92 52 0 74 27
74 92 0 43 -4 54 -28 74 -15 13 -36 24 -46 24 -10 0 -31 -11 -46 -24z"/>
</g>
</svg>
