<?xml version="1.0" standalone="no"?>
<!DOCTYPE svg PUBLIC "-//W3C//DTD SVG 20010904//EN"
 "http://www.w3.org/TR/2001/REC-SVG-20010904/DTD/svg10.dtd">
<svg version="1.0" xmlns="http://www.w3.org/2000/svg"
 width="512.000000pt" height="512.000000pt" viewBox="0 0 512.000000 512.000000"
 preserveAspectRatio="xMidYMid meet">

<g transform="translate(0.000000,512.000000) scale(0.100000,-0.100000)"
fill="#000000" stroke="none">
<path d="M445 5056 c-59 -27 -108 -74 -135 -131 -19 -40 -20 -62 -20 -521 l0
-480 65 -64 65 -64 0 347 0 347 1345 0 1345 0 0 -778 0 -779 -870 -7 c-553 -4
-879 -10 -896 -17 l-27 -10 53 -54 54 -55 1579 0 c1748 0 1621 5 1670 -64 l22
-31 3 -1080 c2 -1064 2 -1080 -18 -1113 -11 -18 -34 -41 -52 -52 -32 -19 -52
-20 -438 -20 l-404 0 69 -71 70 -70 345 3 345 3 57 28 c65 32 119 90 145 158
16 41 17 127 18 1134 l0 1090 -28 57 c-32 64 -80 111 -146 142 -45 21 -59 21
-728 24 l-683 3 -2 977 -3 977 -22 41 c-35 65 -69 100 -125 128 l-52 26 -1275
0 -1276 0 -50 -24z m2594 -126 c57 -28 71 -67 71 -193 l0 -104 -46 -7 c-26 -3
-631 -6 -1345 -6 l-1299 0 0 118 c0 100 3 122 20 150 40 65 -37 61 1323 62
1208 0 1239 0 1276 -20z"/>
<path d="M1913 2302 l67 -67 683 -5 c763 -6 703 -1 857 -81 l65 -34 -183 -5
-184 -5 -34 -37 -34 -38 0 -151 0 -151 34 -34 34 -34 177 0 177 0 60 -45 60
-45 223 0 223 0 26 -66 c15 -36 30 -93 35 -126 8 -61 8 -61 -27 -100 -65 -71
-33 -68 -629 -68 l-537 0 64 -65 64 -65 487 0 486 0 61 31 c72 35 146 113 163
169 16 54 -3 173 -45 276 -109 267 -410 568 -721 719 -175 85 -143 83 -979 88
l-739 6 66 -67z m1940 -384 c61 -54 187 -194 187 -210 0 -4 -68 -8 -151 -8
l-152 0 -41 33 c-68 56 -73 57 -250 57 l-166 0 0 90 0 90 256 0 256 0 61 -52z"/>
<path d="M2170 2045 l64 -65 311 -2 310 -3 3 -92 3 -93 -218 0 -217 0 64 -65
64 -65 174 0 c253 0 262 8 262 223 0 123 -2 137 -23 168 -13 19 -38 39 -57 46
-25 8 -149 12 -420 12 l-384 1 64 -65z"/>
<path d="M3300 915 l64 -65 464 0 463 0 24 25 c30 29 32 58 5 85 -19 19 -33
20 -552 20 l-532 0 64 -65z"/>
</g>
</svg>
