<?xml version="1.0" standalone="no"?>
<!DOCTYPE svg PUBLIC "-//W3C//DTD SVG 20010904//EN"
 "http://www.w3.org/TR/2001/REC-SVG-20010904/DTD/svg10.dtd">
<svg version="1.0" xmlns="http://www.w3.org/2000/svg"
 width="512.000000pt" height="512.000000pt" viewBox="0 0 512.000000 512.000000"
 preserveAspectRatio="xMidYMid meet">

<g transform="translate(0.000000,512.000000) scale(0.100000,-0.100000)"
fill="#000000" stroke="none">
<path d="M890 4507 c-19 -6 -50 -27 -70 -47 -98 -98 -71 -253 54 -315 65 -32
111 -32 177 3 43 22 59 38 81 81 35 66 35 112 3 177 -47 95 -141 134 -245 101z
m130 -83 c79 -47 79 -161 0 -208 -103 -61 -225 60 -164 163 34 58 108 78 164
45z"/>
<path d="M1412 4348 c-16 -16 -15 -43 2 -57 9 -8 214 -10 751 -9 690 3 739 4
749 21 8 12 8 22 0 35 -10 16 -59 17 -751 20 -566 2 -742 -1 -751 -10z"/>
<path d="M3012 4348 c-16 -16 -15 -43 2 -57 22 -19 126 -10 140 12 8 12 8 22
0 35 -14 21 -122 30 -142 10z"/>
<path d="M285 3867 c-26 -6 -57 -28 -91 -62 -42 -42 -54 -61 -63 -106 -9 -40
-11 -347 -9 -1175 l3 -1121 30 -49 c19 -30 49 -60 79 -79 l49 -30 1636 0 1636
0 47 28 c26 15 54 37 63 49 l15 22 15 -22 c9 -12 37 -34 63 -49 l47 -28 516 0
516 0 49 30 c30 19 60 49 79 79 l30 49 3 1121 c2 829 0 1135 -9 1175 -15 73
-90 151 -161 169 -64 16 -950 17 -1013 1 -27 -7 -63 -28 -90 -51 l-45 -40 -45
40 c-27 23 -63 44 -90 51 -60 15 -3202 14 -3260 -2z m3281 -93 c42 -31 63 -65
72 -113 14 -82 70 -82 84 0 9 48 30 82 72 113 27 21 38 21 526 21 488 0 499 0
526 -21 15 -11 37 -33 48 -48 21 -27 21 -36 24 -897 l2 -869 -1420 0 -1420 0
0 391 c0 267 -4 405 -12 437 -16 65 -95 144 -160 160 -65 17 -871 17 -936 0
-65 -16 -144 -95 -160 -160 -8 -32 -12 -170 -12 -437 l0 -391 -300 0 -300 0 0
854 c0 581 3 864 11 883 14 37 47 73 84 89 25 11 313 13 1637 11 1605 -2 1607
-2 1634 -23z m-1663 -908 c36 -14 87 -69 87 -92 0 -12 -81 -14 -550 -14 -605
0 -577 -3 -523 61 49 58 48 58 521 59 343 0 439 -3 465 -14z m97 -366 l0 -180
-560 0 -560 0 0 180 0 180 560 0 560 0 0 -180z m-2 -449 c-3 -207 -6 -216 -72
-265 -27 -21 -38 -21 -486 -21 -448 0 -459 0 -486 21 -66 49 -69 58 -72 265
l-3 189 561 0 561 0 -3 -189z m-1183 -216 c17 -46 63 -103 99 -122 17 -10 13
-17 -48 -93 -68 -84 -77 -113 -45 -133 26 -17 43 -3 124 97 l77 96 418 0 418
0 77 -96 c81 -100 98 -114 124 -97 32 20 23 49 -45 133 -61 76 -65 83 -48 93
36 19 82 76 99 122 l18 45 1418 0 1419 0 0 -213 c0 -201 -1 -215 -23 -257 -16
-33 -34 -51 -67 -67 -44 -23 -47 -23 -510 -23 -435 0 -468 2 -507 19 -48 22
-72 54 -88 119 -21 83 -69 83 -90 0 -16 -65 -40 -97 -88 -119 -41 -18 -93 -19
-1627 -19 l-1586 0 -44 23 c-33 16 -51 34 -67 67 -22 42 -23 56 -23 257 l0
213 299 0 298 0 18 -45z"/>
<path d="M3971 3546 c-8 -9 -11 -79 -9 -231 3 -195 5 -219 21 -229 12 -8 22
-8 35 0 15 10 17 34 20 229 2 225 -1 245 -38 245 -10 0 -23 -6 -29 -14z"/>
<path d="M4291 3546 c-8 -9 -11 -79 -9 -231 3 -195 5 -219 21 -229 12 -8 22
-8 35 0 15 10 17 34 20 229 2 225 -1 245 -38 245 -10 0 -23 -6 -29 -14z"/>
<path d="M4611 3546 c-8 -9 -11 -79 -9 -231 3 -195 5 -219 21 -229 12 -8 22
-8 35 0 15 10 17 34 20 229 2 225 -1 245 -38 245 -10 0 -23 -6 -29 -14z"/>
<path d="M4131 3506 c-8 -9 -11 -58 -9 -151 3 -119 5 -139 21 -149 12 -8 22
-8 35 0 15 10 17 30 20 149 3 142 -3 165 -38 165 -10 0 -23 -6 -29 -14z"/>
<path d="M4451 3506 c-8 -9 -11 -58 -9 -151 3 -119 5 -139 21 -149 12 -8 22
-8 35 0 15 10 17 30 20 149 3 142 -3 165 -38 165 -10 0 -23 -6 -29 -14z"/>
<path d="M3651 3466 c-8 -9 -11 -48 -9 -111 2 -80 6 -100 21 -109 12 -8 22 -8
35 0 14 9 18 29 20 109 3 101 -4 125 -38 125 -10 0 -23 -6 -29 -14z"/>
<path d="M2532 3228 c-16 -16 -15 -43 2 -57 9 -8 121 -10 391 -9 347 3 379 4
389 21 8 12 8 22 0 35 -10 16 -42 17 -390 20 -287 2 -383 -1 -392 -10z"/>
<path d="M3651 3066 c-8 -9 -11 -48 -9 -111 2 -80 6 -100 21 -109 12 -8 22 -8
35 0 14 9 18 29 20 109 3 101 -4 125 -38 125 -10 0 -23 -6 -29 -14z"/>
<path d="M2532 2908 c-16 -16 -15 -43 2 -57 9 -8 121 -10 391 -9 347 3 379 4
389 21 8 12 8 22 0 35 -10 16 -42 17 -390 20 -287 2 -383 -1 -392 -10z"/>
<path d="M3651 2666 c-8 -9 -11 -48 -9 -111 2 -80 6 -100 21 -109 12 -8 22 -8
35 0 14 9 18 29 20 109 3 101 -4 125 -38 125 -10 0 -23 -6 -29 -14z"/>
<path d="M2532 2588 c-16 -16 -15 -43 2 -57 9 -8 121 -10 391 -9 347 3 379 4
389 21 8 12 8 22 0 35 -10 16 -42 17 -390 20 -287 2 -383 -1 -392 -10z"/>
<path d="M3651 2266 c-8 -9 -11 -48 -9 -111 2 -80 6 -100 21 -109 12 -8 22 -8
35 0 14 9 18 29 20 109 3 101 -4 125 -38 125 -10 0 -23 -6 -29 -14z"/>
<path d="M1072 2153 c-13 -3 -41 -22 -62 -43 -53 -53 -62 -110 -29 -177 18
-36 35 -54 69 -70 24 -13 56 -23 70 -23 14 0 46 10 70 23 48 24 90 88 90 137
0 14 -10 46 -22 70 -35 68 -104 99 -186 83z m103 -98 c16 -15 25 -36 25 -55 0
-19 -9 -40 -25 -55 -15 -16 -36 -25 -55 -25 -19 0 -40 9 -55 25 -16 15 -25 36
-25 55 0 19 9 40 25 55 15 16 36 25 55 25 19 0 40 -9 55 -25z"/>
<path d="M1712 2153 c-13 -3 -41 -22 -62 -43 -53 -53 -62 -110 -29 -177 18
-36 35 -54 69 -70 24 -13 56 -23 70 -23 49 0 113 42 138 90 12 24 22 56 22 70
0 14 -10 46 -22 70 -35 68 -104 99 -186 83z m103 -98 c50 -49 15 -135 -55
-135 -19 0 -40 9 -55 25 -16 15 -25 36 -25 55 0 19 9 40 25 55 15 16 36 25 55
25 19 0 40 -9 55 -25z"/>
<path d="M4090 987 c-19 -6 -50 -27 -70 -47 -98 -98 -71 -253 54 -315 65 -32
111 -32 177 3 43 22 59 38 81 81 35 66 35 112 3 177 -47 95 -141 134 -245 101z
m130 -83 c104 -62 61 -224 -60 -224 -90 0 -149 102 -104 179 34 58 108 78 164
45z"/>
<path d="M1972 828 c-16 -16 -15 -43 2 -57 22 -19 126 -10 140 12 8 12 8 22 0
35 -14 21 -122 30 -142 10z"/>
<path d="M2212 828 c-16 -16 -15 -43 2 -57 9 -8 214 -10 751 -9 690 3 739 4
749 21 8 12 8 22 0 35 -10 16 -59 17 -751 20 -566 2 -742 -1 -751 -10z"/>
</g>
</svg>
